<svg width="504" height="210" viewBox="0 0 504 210" fill="none" xmlns="http://www.w3.org/2000/svg">
<path d="M0 198.622V18.8683L122.625 147.279V30.3141H148V208.868L25.3745 80.7845V198.622H0Z" fill="black"/>
<path d="M228.644 130.525L169.557 158.031L169.806 198.75L148 208.868L148 30.3683L281.543 146.735L258.749 157.346L228.644 130.525ZM211.028 114.878L168.684 77.4212L169.104 134.395L211.028 114.878Z" fill="#0500FF"/>
<path d="M258 198.743V29.8683H293.438C310.427 29.8683 323.844 31.5454 333.688 34.8995C344.26 38.1808 353.849 43.7589 362.453 51.6339C379.88 67.5297 388.594 88.4204 388.594 114.306C388.594 140.264 379.516 161.264 361.359 177.306C352.245 185.327 342.693 190.905 332.703 194.04C323.37 197.176 310.135 198.743 293 198.743H258ZM283.484 174.79H294.969C306.417 174.79 315.932 173.587 323.516 171.181C331.099 168.629 337.953 164.582 344.078 159.04C356.62 147.592 362.891 132.681 362.891 114.306C362.891 95.7849 356.693 80.7641 344.297 69.2433C333.141 58.962 316.698 53.8214 294.969 53.8214H283.484V174.79Z" fill="black"/>
<path d="M457.562 168.337H385.266L366.453 209.353H339L422.562 29.8683L503.172 209.353H475.281L457.562 168.337ZM447.172 144.384L422.125 86.962L395.875 144.384H447.172Z" fill="black"/>
</svg>
