<svg xmlns="http://www.w3.org/2000/svg" version="1.1" xmlns:xlink="http://www.w3.org/1999/xlink" xmlns:svgjs="http://svgjs.dev/svgjs" width="1000" height="1000" viewBox="0 0 1000 1000"><rect width="1000" height="1000" fill="#ffffff"></rect><g transform="matrix(0.7,0,0,0.7,149.57575757575756,282.1265587044535)"><svg viewBox="0 0 396 247" data-background-color="#d2d6dc" preserveAspectRatio="xMidYMid meet" height="623" width="1000" xmlns="http://www.w3.org/2000/svg" xmlns:xlink="http://www.w3.org/1999/xlink"><g id="tight-bounds" transform="matrix(1,0,0,1,0.2400000000000091,-0.09999999999999432)"><svg viewBox="0 0 395.52 247.2" height="247.2" width="395.52"><g><svg></svg></g><g><svg viewBox="0 0 395.52 247.2" height="247.2" width="395.52"><g transform="matrix(1,0,0,1,157.99373736263735,47.215199999999996)"><svg viewBox="0 0 79.53252527472527 152.7696" height="152.7696" width="79.53252527472527"><g><svg viewBox="0 0 79.53252527472527 152.7696" height="152.7696" width="79.53252527472527"><g><svg viewBox="0 0 79.53252527472527 152.7696" height="152.7696" width="79.53252527472527"><g><svg viewBox="0 0 79.53252527472527 152.7696" height="152.7696" width="79.53252527472527"><g><svg viewBox="0 0 79.53252527472527 152.7696" height="152.7696" width="79.53252527472527"><g><svg viewBox="0 0 79.53252527472527 152.7696" height="152.7696" width="79.53252527472527"><g transform="matrix(1,0,0,1,0,0)"><svg width="79.53252527472527" viewBox="3.83 -35.55 18.509999999999998 35.55" height="152.7696" data-palette-color="#636365"><path d="M20.31-19.53L20.31-15.7 8.3-15.7 8.3 0 3.83 0 3.83-35.55 22.34-35.55 22.34-31.69 8.3-31.69 8.3-19.53 20.31-19.53Z" opacity="1" transform="matrix(1,0,0,1,0,0)" fill="#000000" class="undefined-text-0" data-fill-palette-color="primary" id="text-0"></path></svg></g></svg></g></svg></g></svg></g></svg></g></svg></g></svg></g><path d="M340.295 41.215L340.295 0 93.095 0 93.095 247.2 340.295 247.2 340.295 205.985 326.518 205.985 326.518 233.423 106.872 233.423 106.872 13.777 326.518 13.777 326.518 41.215Z" fill="#000000" stroke="transparent" data-fill-palette-color="primary"></path></svg></g><defs></defs></svg><rect width="395.52" height="247.2" fill="none" stroke="none" visibility="hidden"></rect></g></svg></g></svg>